<mxfile host="Electron" modified="2023-11-06T18:58:49.554Z" agent="Mozilla/5.0 (Windows NT 10.0; Win64; x64) AppleWebKit/537.36 (KHTML, like Gecko) draw.io/22.0.3 Chrome/114.0.5735.289 Electron/25.8.4 Safari/537.36" etag="XKDJt0TeKajSUmONgkjk" version="22.0.3" type="device">
  <diagram name="PÃ¡gina-1" id="RCOlJqVOw2HRScopHDW-">
    <mxGraphModel dx="1156" dy="1713" grid="1" gridSize="10" guides="1" tooltips="1" connect="1" arrows="1" fold="1" page="1" pageScale="1" pageWidth="1100" pageHeight="850" math="0" shadow="0">
      <root>
        <mxCell id="0" />
        <mxCell id="1" parent="0" />
        <mxCell id="QUULI8nU6SgXqf4ghOHJ-48" value="Security group" style="fillColor=none;strokeColor=#DD3522;verticalAlign=bottom;fontStyle=0;fontColor=#DD3522;whiteSpace=wrap;html=1;" vertex="1" parent="1">
          <mxGeometry x="770.5" y="839" width="117" height="107" as="geometry" />
        </mxCell>
        <mxCell id="QUULI8nU6SgXqf4ghOHJ-1" value="On-Premise" style="sketch=0;outlineConnect=0;gradientColor=none;html=1;whiteSpace=wrap;fontSize=12;fontStyle=0;shape=mxgraph.aws4.group;grIcon=mxgraph.aws4.group_on_premise;strokeColor=#858B94;fillColor=none;verticalAlign=top;align=left;spacingLeft=30;fontColor=#858B94;dashed=0;" vertex="1" parent="1">
          <mxGeometry x="301" y="-43" width="809" height="229" as="geometry" />
        </mxCell>
        <mxCell id="QUULI8nU6SgXqf4ghOHJ-2" value="CNL" style="shape=mxgraph.signs.tech.computer;html=1;pointerEvents=1;fillColor=#000000;strokeColor=none;verticalLabelPosition=bottom;verticalAlign=top;align=center;spacingTop=-82;" vertex="1" parent="1">
          <mxGeometry x="974" y="48" width="58" height="60" as="geometry" />
        </mxCell>
        <mxCell id="QUULI8nU6SgXqf4ghOHJ-3" style="edgeStyle=orthogonalEdgeStyle;rounded=0;orthogonalLoop=1;jettySize=auto;html=1;entryX=0.145;entryY=0.145;entryDx=0;entryDy=0;entryPerimeter=0;endArrow=none;endFill=0;" edge="1" parent="1" source="QUULI8nU6SgXqf4ghOHJ-4" target="QUULI8nU6SgXqf4ghOHJ-33">
          <mxGeometry relative="1" as="geometry">
            <mxPoint x="793.25" y="239.25" as="targetPoint" />
            <Array as="points">
              <mxPoint x="404" y="167" />
              <mxPoint x="775" y="167" />
              <mxPoint x="775" y="214" />
            </Array>
          </mxGeometry>
        </mxCell>
        <mxCell id="QUULI8nU6SgXqf4ghOHJ-4" value="Operadores" style="sketch=0;pointerEvents=1;shadow=0;dashed=0;html=1;strokeColor=none;fillColor=#505050;labelPosition=center;verticalLabelPosition=bottom;verticalAlign=top;outlineConnect=0;align=center;shape=mxgraph.office.users.user;horizontal=1;spacingTop=-75;" vertex="1" parent="1">
          <mxGeometry x="381" y="76" width="46" height="50" as="geometry" />
        </mxCell>
        <mxCell id="QUULI8nU6SgXqf4ghOHJ-5" value="AWS" style="text;html=1;strokeColor=none;fillColor=none;align=center;verticalAlign=middle;whiteSpace=wrap;rounded=0;fontStyle=1;fontSize=32;" vertex="1" parent="1">
          <mxGeometry x="460" y="-106" width="524" height="59" as="geometry" />
        </mxCell>
        <mxCell id="QUULI8nU6SgXqf4ghOHJ-6" value="Producer" style="shape=mxgraph.signs.tech.computer;html=1;pointerEvents=1;fillColor=#000000;strokeColor=none;verticalLabelPosition=bottom;verticalAlign=top;align=center;spacingTop=-82;" vertex="1" parent="1">
          <mxGeometry x="682" y="41.5" width="58" height="60" as="geometry" />
        </mxCell>
        <mxCell id="QUULI8nU6SgXqf4ghOHJ-7" value="Consumer" style="shape=mxgraph.signs.tech.computer;html=1;pointerEvents=1;fillColor=#000000;strokeColor=none;verticalLabelPosition=bottom;verticalAlign=top;align=center;spacingTop=-82;" vertex="1" parent="1">
          <mxGeometry x="505" y="53" width="58" height="60" as="geometry" />
        </mxCell>
        <mxCell id="QUULI8nU6SgXqf4ghOHJ-8" style="edgeStyle=orthogonalEdgeStyle;rounded=0;orthogonalLoop=1;jettySize=auto;html=1;endArrow=none;endFill=0;" edge="1" parent="1" target="QUULI8nU6SgXqf4ghOHJ-33">
          <mxGeometry relative="1" as="geometry">
            <Array as="points">
              <mxPoint x="708" y="121" />
              <mxPoint x="811" y="121" />
            </Array>
            <mxPoint x="708.3000000000002" y="101.79593356602231" as="sourcePoint" />
          </mxGeometry>
        </mxCell>
        <mxCell id="QUULI8nU6SgXqf4ghOHJ-9" style="edgeStyle=orthogonalEdgeStyle;rounded=0;orthogonalLoop=1;jettySize=auto;html=1;entryX=0.251;entryY=0.069;entryDx=0;entryDy=0;entryPerimeter=0;endArrow=none;endFill=0;" edge="1" parent="1" source="QUULI8nU6SgXqf4ghOHJ-7" target="QUULI8nU6SgXqf4ghOHJ-33">
          <mxGeometry relative="1" as="geometry">
            <Array as="points">
              <mxPoint x="537" y="147" />
              <mxPoint x="798" y="147" />
            </Array>
          </mxGeometry>
        </mxCell>
        <mxCell id="QUULI8nU6SgXqf4ghOHJ-10" value="AWS Cloud" style="points=[[0,0],[0.25,0],[0.5,0],[0.75,0],[1,0],[1,0.25],[1,0.5],[1,0.75],[1,1],[0.75,1],[0.5,1],[0.25,1],[0,1],[0,0.75],[0,0.5],[0,0.25]];outlineConnect=0;gradientColor=none;html=1;whiteSpace=wrap;fontSize=12;fontStyle=0;container=1;pointerEvents=0;collapsible=0;recursiveResize=0;shape=mxgraph.aws4.group;grIcon=mxgraph.aws4.group_aws_cloud_alt;strokeColor=#232F3E;fillColor=none;verticalAlign=top;align=left;spacingLeft=30;fontColor=#232F3E;dashed=0;" vertex="1" parent="1">
          <mxGeometry x="302" y="241" width="808" height="999" as="geometry" />
        </mxCell>
        <mxCell id="QUULI8nU6SgXqf4ghOHJ-11" value="AWS Region" style="points=[[0,0],[0.25,0],[0.5,0],[0.75,0],[1,0],[1,0.25],[1,0.5],[1,0.75],[1,1],[0.75,1],[0.5,1],[0.25,1],[0,1],[0,0.75],[0,0.5],[0,0.25]];outlineConnect=0;gradientColor=none;html=1;whiteSpace=wrap;fontSize=12;fontStyle=0;container=1;pointerEvents=0;collapsible=0;recursiveResize=0;shape=mxgraph.aws4.group;grIcon=mxgraph.aws4.group_region;strokeColor=#147EBA;fillColor=none;verticalAlign=top;align=left;spacingLeft=30;fontColor=#147EBA;dashed=1;" vertex="1" parent="1">
          <mxGeometry x="338" y="293" width="737" height="918" as="geometry" />
        </mxCell>
        <mxCell id="QUULI8nU6SgXqf4ghOHJ-12" value="VPC" style="points=[[0,0],[0.25,0],[0.5,0],[0.75,0],[1,0],[1,0.25],[1,0.5],[1,0.75],[1,1],[0.75,1],[0.5,1],[0.25,1],[0,1],[0,0.75],[0,0.5],[0,0.25]];outlineConnect=0;gradientColor=none;html=1;whiteSpace=wrap;fontSize=12;fontStyle=0;container=1;pointerEvents=0;collapsible=0;recursiveResize=0;shape=mxgraph.aws4.group;grIcon=mxgraph.aws4.group_vpc;strokeColor=#248814;fillColor=none;verticalAlign=top;align=left;spacingLeft=30;fontColor=#AAB7B8;dashed=0;movable=1;resizable=1;rotatable=1;deletable=1;editable=1;locked=0;connectable=1;" vertex="1" parent="QUULI8nU6SgXqf4ghOHJ-11">
          <mxGeometry x="62.5" y="36" width="510" height="837" as="geometry" />
        </mxCell>
        <mxCell id="QUULI8nU6SgXqf4ghOHJ-13" value="Availability Zone A" style="fillColor=none;strokeColor=#147EBA;dashed=1;verticalAlign=top;fontStyle=0;fontColor=#147EBA;whiteSpace=wrap;html=1;" vertex="1" parent="QUULI8nU6SgXqf4ghOHJ-11">
          <mxGeometry x="83.5" y="83" width="327" height="488" as="geometry" />
        </mxCell>
        <mxCell id="QUULI8nU6SgXqf4ghOHJ-14" value="Availability Zone B" style="fillColor=none;strokeColor=#147EBA;dashed=1;verticalAlign=top;fontStyle=0;fontColor=#147EBA;whiteSpace=wrap;html=1;" vertex="1" parent="QUULI8nU6SgXqf4ghOHJ-11">
          <mxGeometry x="83.5" y="595" width="328" height="294" as="geometry" />
        </mxCell>
        <mxCell id="QUULI8nU6SgXqf4ghOHJ-15" value="Public subnet" style="points=[[0,0],[0.25,0],[0.5,0],[0.75,0],[1,0],[1,0.25],[1,0.5],[1,0.75],[1,1],[0.75,1],[0.5,1],[0.25,1],[0,1],[0,0.75],[0,0.5],[0,0.25]];outlineConnect=0;gradientColor=none;html=1;whiteSpace=wrap;fontSize=12;fontStyle=0;container=1;pointerEvents=0;collapsible=0;recursiveResize=0;shape=mxgraph.aws4.group;grIcon=mxgraph.aws4.group_security_group;grStroke=0;strokeColor=#248814;fillColor=#E9F3E6;verticalAlign=top;align=left;spacingLeft=30;fontColor=#248814;dashed=0;" vertex="1" parent="QUULI8nU6SgXqf4ghOHJ-11">
          <mxGeometry x="110.5" y="340" width="278" height="189" as="geometry" />
        </mxCell>
        <mxCell id="QUULI8nU6SgXqf4ghOHJ-16" value="Private subnet" style="points=[[0,0],[0.25,0],[0.5,0],[0.75,0],[1,0],[1,0.25],[1,0.5],[1,0.75],[1,1],[0.75,1],[0.5,1],[0.25,1],[0,1],[0,0.75],[0,0.5],[0,0.25]];outlineConnect=0;gradientColor=none;html=1;whiteSpace=wrap;fontSize=12;fontStyle=0;container=1;pointerEvents=0;collapsible=0;recursiveResize=0;shape=mxgraph.aws4.group;grIcon=mxgraph.aws4.group_security_group;grStroke=0;strokeColor=#147EBA;fillColor=#E6F2F8;verticalAlign=top;align=left;spacingLeft=30;fontColor=#147EBA;dashed=0;" vertex="1" parent="QUULI8nU6SgXqf4ghOHJ-11">
          <mxGeometry x="109.5" y="656" width="279" height="197" as="geometry" />
        </mxCell>
        <mxCell id="QUULI8nU6SgXqf4ghOHJ-17" style="edgeStyle=orthogonalEdgeStyle;rounded=0;orthogonalLoop=1;jettySize=auto;html=1;entryX=0.5;entryY=0;entryDx=0;entryDy=0;dashed=1;" edge="1" parent="QUULI8nU6SgXqf4ghOHJ-11" source="QUULI8nU6SgXqf4ghOHJ-18">
          <mxGeometry relative="1" as="geometry">
            <mxPoint x="251.50000000000023" y="703" as="targetPoint" />
          </mxGeometry>
        </mxCell>
        <mxCell id="QUULI8nU6SgXqf4ghOHJ-18" value="" style="outlineConnect=0;dashed=0;verticalLabelPosition=bottom;verticalAlign=top;align=center;html=1;shape=mxgraph.aws3.elastic_network_interface;fillColor=#F58536;gradientColor=none;aspect=fixed;" vertex="1" parent="QUULI8nU6SgXqf4ghOHJ-11">
          <mxGeometry x="351.5" y="603" width="40" height="40" as="geometry" />
        </mxCell>
        <mxCell id="QUULI8nU6SgXqf4ghOHJ-19" style="edgeStyle=orthogonalEdgeStyle;rounded=0;orthogonalLoop=1;jettySize=auto;html=1;entryX=0.5;entryY=0;entryDx=0;entryDy=0;entryPerimeter=0;endArrow=none;endFill=0;" edge="1" parent="QUULI8nU6SgXqf4ghOHJ-11" source="QUULI8nU6SgXqf4ghOHJ-20" target="QUULI8nU6SgXqf4ghOHJ-18">
          <mxGeometry relative="1" as="geometry">
            <mxPoint x="353.6578947368421" y="493.52631578947376" as="targetPoint" />
          </mxGeometry>
        </mxCell>
        <mxCell id="QUULI8nU6SgXqf4ghOHJ-20" value="EKS Control Plane" style="sketch=0;points=[[0,0,0],[0.25,0,0],[0.5,0,0],[0.75,0,0],[1,0,0],[0,1,0],[0.25,1,0],[0.5,1,0],[0.75,1,0],[1,1,0],[0,0.25,0],[0,0.5,0],[0,0.75,0],[1,0.25,0],[1,0.5,0],[1,0.75,0]];outlineConnect=0;fontColor=#232F3E;fillColor=#ED7100;strokeColor=#ffffff;dashed=0;verticalLabelPosition=bottom;verticalAlign=top;align=center;html=1;fontSize=12;fontStyle=0;aspect=fixed;shape=mxgraph.aws4.resourceIcon;resIcon=mxgraph.aws4.eks;" vertex="1" parent="QUULI8nU6SgXqf4ghOHJ-11">
          <mxGeometry x="207.5" y="397" width="78" height="78" as="geometry" />
        </mxCell>
        <mxCell id="QUULI8nU6SgXqf4ghOHJ-21" value="ENI" style="text;html=1;strokeColor=none;fillColor=none;align=center;verticalAlign=middle;whiteSpace=wrap;rounded=0;" vertex="1" parent="QUULI8nU6SgXqf4ghOHJ-11">
          <mxGeometry x="283.5" y="610" width="105" height="30" as="geometry" />
        </mxCell>
        <mxCell id="QUULI8nU6SgXqf4ghOHJ-22" style="edgeStyle=orthogonalEdgeStyle;rounded=0;orthogonalLoop=1;jettySize=auto;html=1;exitX=0.5;exitY=1;exitDx=0;exitDy=0;exitPerimeter=0;" edge="1" parent="QUULI8nU6SgXqf4ghOHJ-11">
          <mxGeometry relative="1" as="geometry">
            <mxPoint x="491.5" y="426" as="targetPoint" />
            <mxPoint x="491.5" y="426" as="sourcePoint" />
          </mxGeometry>
        </mxCell>
        <mxCell id="QUULI8nU6SgXqf4ghOHJ-23" value="NLB" style="outlineConnect=0;dashed=0;verticalLabelPosition=bottom;verticalAlign=top;align=center;html=1;shape=mxgraph.aws3.classic_load_balancer;fillColor=#F58536;gradientColor=none;aspect=fixed;" vertex="1" parent="QUULI8nU6SgXqf4ghOHJ-11">
          <mxGeometry x="342.5" y="283" width="50" height="50" as="geometry" />
        </mxCell>
        <mxCell id="QUULI8nU6SgXqf4ghOHJ-24" style="edgeStyle=orthogonalEdgeStyle;rounded=0;orthogonalLoop=1;jettySize=auto;html=1;entryX=0.5;entryY=0;entryDx=0;entryDy=0;entryPerimeter=0;exitX=0.5;exitY=1;exitDx=0;exitDy=0;exitPerimeter=0;dashed=1;" edge="1" parent="QUULI8nU6SgXqf4ghOHJ-11" source="QUULI8nU6SgXqf4ghOHJ-23" target="QUULI8nU6SgXqf4ghOHJ-20">
          <mxGeometry relative="1" as="geometry" />
        </mxCell>
        <mxCell id="QUULI8nU6SgXqf4ghOHJ-25" value="" style="rounded=0;arcSize=10;dashed=1;fillColor=none;gradientColor=none;strokeWidth=1;strokeColor=#f50025;" vertex="1" parent="QUULI8nU6SgXqf4ghOHJ-11">
          <mxGeometry x="167.5" y="378" width="152" height="132" as="geometry" />
        </mxCell>
        <mxCell id="QUULI8nU6SgXqf4ghOHJ-26" value="" style="sketch=0;outlineConnect=0;fontColor=#232F3E;gradientColor=none;fillColor=#DD344C;strokeColor=none;dashed=0;verticalLabelPosition=bottom;verticalAlign=top;align=center;html=1;fontSize=12;fontStyle=0;aspect=fixed;pointerEvents=1;shape=mxgraph.aws4.role;" vertex="1" parent="QUULI8nU6SgXqf4ghOHJ-11">
          <mxGeometry x="294.5" y="374" width="45" height="25.38" as="geometry" />
        </mxCell>
        <mxCell id="QUULI8nU6SgXqf4ghOHJ-27" value="Public subnet" style="points=[[0,0],[0.25,0],[0.5,0],[0.75,0],[1,0],[1,0.25],[1,0.5],[1,0.75],[1,1],[0.75,1],[0.5,1],[0.25,1],[0,1],[0,0.75],[0,0.5],[0,0.25]];outlineConnect=0;gradientColor=none;html=1;whiteSpace=wrap;fontSize=12;fontStyle=0;container=1;pointerEvents=0;collapsible=0;recursiveResize=0;shape=mxgraph.aws4.group;grIcon=mxgraph.aws4.group_security_group;grStroke=0;strokeColor=#248814;fillColor=#E9F3E6;verticalAlign=top;align=left;spacingLeft=30;fontColor=#248814;dashed=0;" vertex="1" parent="QUULI8nU6SgXqf4ghOHJ-11">
          <mxGeometry x="114" y="119" width="271" height="154" as="geometry" />
        </mxCell>
        <mxCell id="QUULI8nU6SgXqf4ghOHJ-28" value="Public Custom &lt;br style=&quot;font-size: 10px;&quot;&gt;Route Table" style="outlineConnect=0;dashed=0;verticalLabelPosition=bottom;verticalAlign=top;align=center;html=1;shape=mxgraph.aws3.route_table;fillColor=#F58536;gradientColor=none;fontSize=10;" vertex="1" parent="QUULI8nU6SgXqf4ghOHJ-27">
          <mxGeometry x="-15" y="59" width="37" height="34" as="geometry" />
        </mxCell>
        <mxCell id="QUULI8nU6SgXqf4ghOHJ-29" value="MSK" style="sketch=0;points=[[0,0,0],[0.25,0,0],[0.5,0,0],[0.75,0,0],[1,0,0],[0,1,0],[0.25,1,0],[0.5,1,0],[0.75,1,0],[1,1,0],[0,0.25,0],[0,0.5,0],[0,0.75,0],[1,0.25,0],[1,0.5,0],[1,0.75,0]];outlineConnect=0;fontColor=#232F3E;gradientColor=#945DF2;gradientDirection=north;fillColor=#5A30B5;strokeColor=#ffffff;dashed=0;verticalLabelPosition=bottom;verticalAlign=top;align=center;html=1;fontSize=12;fontStyle=0;aspect=fixed;shape=mxgraph.aws4.resourceIcon;resIcon=mxgraph.aws4.managed_streaming_for_kafka;" vertex="1" parent="QUULI8nU6SgXqf4ghOHJ-11">
          <mxGeometry x="214.5" y="162.5" width="65" height="65" as="geometry" />
        </mxCell>
        <mxCell id="QUULI8nU6SgXqf4ghOHJ-30" style="edgeStyle=orthogonalEdgeStyle;rounded=0;orthogonalLoop=1;jettySize=auto;html=1;endArrow=none;strokeColor=#147EBA;endFill=0;" edge="1" parent="QUULI8nU6SgXqf4ghOHJ-11" source="QUULI8nU6SgXqf4ghOHJ-28" target="QUULI8nU6SgXqf4ghOHJ-29">
          <mxGeometry relative="1" as="geometry" />
        </mxCell>
        <mxCell id="QUULI8nU6SgXqf4ghOHJ-31" style="edgeStyle=orthogonalEdgeStyle;rounded=0;orthogonalLoop=1;jettySize=auto;html=1;exitX=0;exitY=0.5;exitDx=0;exitDy=0;entryX=1;entryY=0.5;entryDx=0;entryDy=0;entryPerimeter=0;endArrow=none;endFill=0;" edge="1" parent="QUULI8nU6SgXqf4ghOHJ-11" target="QUULI8nU6SgXqf4ghOHJ-29">
          <mxGeometry relative="1" as="geometry">
            <Array as="points">
              <mxPoint x="97" y="767" />
              <mxPoint x="97" y="301" />
              <mxPoint x="308" y="301" />
              <mxPoint x="308" y="195" />
            </Array>
            <mxPoint x="132.5" y="767.5" as="sourcePoint" />
          </mxGeometry>
        </mxCell>
        <mxCell id="QUULI8nU6SgXqf4ghOHJ-32" style="edgeStyle=orthogonalEdgeStyle;rounded=0;orthogonalLoop=1;jettySize=auto;html=1;exitX=0;exitY=0.5;exitDx=0;exitDy=0;exitPerimeter=0;endArrow=none;endFill=0;" edge="1" parent="1" source="QUULI8nU6SgXqf4ghOHJ-33" target="QUULI8nU6SgXqf4ghOHJ-29">
          <mxGeometry relative="1" as="geometry" />
        </mxCell>
        <mxCell id="QUULI8nU6SgXqf4ghOHJ-33" value="" style="outlineConnect=0;dashed=0;verticalLabelPosition=bottom;verticalAlign=top;align=center;html=1;shape=mxgraph.aws3.internet_gateway;fillColor=#F58534;gradientColor=none;aspect=fixed;" vertex="1" parent="1">
          <mxGeometry x="786" y="207" width="50" height="50" as="geometry" />
        </mxCell>
        <mxCell id="QUULI8nU6SgXqf4ghOHJ-34" style="edgeStyle=orthogonalEdgeStyle;rounded=0;orthogonalLoop=1;jettySize=auto;html=1;exitX=0.145;exitY=0.855;exitDx=0;exitDy=0;exitPerimeter=0;endArrow=none;endFill=0;" edge="1" parent="1" source="QUULI8nU6SgXqf4ghOHJ-33" target="QUULI8nU6SgXqf4ghOHJ-23">
          <mxGeometry relative="1" as="geometry">
            <Array as="points">
              <mxPoint x="793" y="262" />
              <mxPoint x="706" y="262" />
            </Array>
          </mxGeometry>
        </mxCell>
        <mxCell id="QUULI8nU6SgXqf4ghOHJ-35" style="edgeStyle=orthogonalEdgeStyle;rounded=0;orthogonalLoop=1;jettySize=auto;html=1;exitX=0.855;exitY=0.855;exitDx=0;exitDy=0;exitPerimeter=0;endArrow=none;endFill=0;entryX=0.5;entryY=0;entryDx=0;entryDy=0;entryPerimeter=0;" edge="1" parent="1" source="QUULI8nU6SgXqf4ghOHJ-33" target="QUULI8nU6SgXqf4ghOHJ-46">
          <mxGeometry relative="1" as="geometry">
            <Array as="points" />
            <mxPoint x="829.4827586206898" y="851" as="targetPoint" />
          </mxGeometry>
        </mxCell>
        <mxCell id="QUULI8nU6SgXqf4ghOHJ-36" value="" style="outlineConnect=0;dashed=0;verticalLabelPosition=bottom;verticalAlign=top;align=center;html=1;shape=mxgraph.aws3.ec2;fillColor=#F58534;gradientColor=none;" vertex="1" parent="1">
          <mxGeometry x="498.5" y="1049" width="50" height="50" as="geometry" />
        </mxCell>
        <mxCell id="QUULI8nU6SgXqf4ghOHJ-37" value="" style="outlineConnect=0;dashed=0;verticalLabelPosition=bottom;verticalAlign=top;align=center;html=1;shape=mxgraph.aws3.ec2;fillColor=#F58534;gradientColor=none;" vertex="1" parent="1">
          <mxGeometry x="637.5" y="1052" width="50" height="50" as="geometry" />
        </mxCell>
        <mxCell id="QUULI8nU6SgXqf4ghOHJ-38" value="" style="outlineConnect=0;dashed=0;verticalLabelPosition=bottom;verticalAlign=top;align=center;html=1;shape=mxgraph.aws3.ec2;fillColor=#F58534;gradientColor=none;" vertex="1" parent="1">
          <mxGeometry x="567.5" y="1052" width="50" height="50" as="geometry" />
        </mxCell>
        <mxCell id="QUULI8nU6SgXqf4ghOHJ-39" value="EC2 worker nodes" style="text;html=1;strokeColor=none;fillColor=none;align=center;verticalAlign=middle;whiteSpace=wrap;rounded=0;fontStyle=1" vertex="1" parent="1">
          <mxGeometry x="532.5" y="1096" width="120" height="30" as="geometry" />
        </mxCell>
        <mxCell id="QUULI8nU6SgXqf4ghOHJ-40" value="Auto Scaling group" style="points=[[0,0],[0.25,0],[0.5,0],[0.75,0],[1,0],[1,0.25],[1,0.5],[1,0.75],[1,1],[0.75,1],[0.5,1],[0.25,1],[0,1],[0,0.75],[0,0.5],[0,0.25]];outlineConnect=0;gradientColor=none;html=1;whiteSpace=wrap;fontSize=12;fontStyle=0;container=1;pointerEvents=0;collapsible=0;recursiveResize=0;shape=mxgraph.aws4.groupCenter;grIcon=mxgraph.aws4.group_auto_scaling_group;grStroke=1;strokeColor=#D86613;fillColor=none;verticalAlign=top;align=center;fontColor=#D86613;dashed=1;spacingTop=25;" vertex="1" parent="1">
          <mxGeometry x="470.5" y="996" width="238" height="129" as="geometry" />
        </mxCell>
        <mxCell id="QUULI8nU6SgXqf4ghOHJ-41" value="" style="sketch=0;points=[[0,0,0],[0.25,0,0],[0.5,0,0],[0.75,0,0],[1,0,0],[0,1,0],[0.25,1,0],[0.5,1,0],[0.75,1,0],[1,1,0],[0,0.25,0],[0,0.5,0],[0,0.75,0],[1,0.25,0],[1,0.5,0],[1,0.75,0]];outlineConnect=0;fontColor=#232F3E;fillColor=#ED7100;strokeColor=#ffffff;dashed=0;verticalLabelPosition=bottom;verticalAlign=top;align=center;html=1;fontSize=12;fontStyle=0;aspect=fixed;shape=mxgraph.aws4.resourceIcon;resIcon=mxgraph.aws4.ecr;" vertex="1" parent="1">
          <mxGeometry x="668.5" y="985" width="50" height="50" as="geometry" />
        </mxCell>
        <mxCell id="QUULI8nU6SgXqf4ghOHJ-42" style="rounded=0;orthogonalLoop=1;jettySize=auto;html=1;exitX=1;exitY=0.5;exitDx=0;exitDy=0;edgeStyle=orthogonalEdgeStyle;entryX=0;entryY=0.5;entryDx=0;entryDy=0;entryPerimeter=0;dashed=1;" edge="1" parent="1" target="QUULI8nU6SgXqf4ghOHJ-44">
          <mxGeometry relative="1" as="geometry">
            <mxPoint x="708.5" y="1060.5" as="sourcePoint" />
            <mxPoint x="1000" y="1073" as="targetPoint" />
          </mxGeometry>
        </mxCell>
        <mxCell id="QUULI8nU6SgXqf4ghOHJ-43" value="Security group" style="fillColor=none;strokeColor=#DD3522;verticalAlign=bottom;fontStyle=0;fontColor=#DD3522;whiteSpace=wrap;html=1;" vertex="1" parent="1">
          <mxGeometry x="928.5" y="961" width="117" height="107" as="geometry" />
        </mxCell>
        <mxCell id="QUULI8nU6SgXqf4ghOHJ-44" value="S3" style="sketch=0;points=[[0,0,0],[0.25,0,0],[0.5,0,0],[0.75,0,0],[1,0,0],[0,1,0],[0.25,1,0],[0.5,1,0],[0.75,1,0],[1,1,0],[0,0.25,0],[0,0.5,0],[0,0.75,0],[1,0.25,0],[1,0.5,0],[1,0.75,0]];outlineConnect=0;fontColor=#232F3E;gradientColor=#60A337;gradientDirection=north;fillColor=#277116;strokeColor=#ffffff;dashed=0;verticalLabelPosition=bottom;verticalAlign=top;align=center;html=1;fontSize=12;fontStyle=0;aspect=fixed;shape=mxgraph.aws4.resourceIcon;resIcon=mxgraph.aws4.s3;" vertex="1" parent="1">
          <mxGeometry x="962" y="986" width="50" height="50" as="geometry" />
        </mxCell>
        <mxCell id="QUULI8nU6SgXqf4ghOHJ-45" style="edgeStyle=orthogonalEdgeStyle;rounded=0;orthogonalLoop=1;jettySize=auto;html=1;entryX=0.855;entryY=0.145;entryDx=0;entryDy=0;entryPerimeter=0;endArrow=none;endFill=0;" edge="1" parent="1" source="QUULI8nU6SgXqf4ghOHJ-2" target="QUULI8nU6SgXqf4ghOHJ-33">
          <mxGeometry relative="1" as="geometry">
            <mxPoint x="828.75" y="239.25" as="targetPoint" />
            <Array as="points">
              <mxPoint x="1006" y="151" />
              <mxPoint x="846" y="151" />
              <mxPoint x="846" y="214" />
            </Array>
          </mxGeometry>
        </mxCell>
        <mxCell id="QUULI8nU6SgXqf4ghOHJ-46" value="" style="sketch=0;points=[[0,0,0],[0.25,0,0],[0.5,0,0],[0.75,0,0],[1,0,0],[0,1,0],[0.25,1,0],[0.5,1,0],[0.75,1,0],[1,1,0],[0,0.25,0],[0,0.5,0],[0,0.75,0],[1,0.25,0],[1,0.5,0],[1,0.75,0]];outlineConnect=0;fontColor=#232F3E;fillColor=#01A88D;strokeColor=#ffffff;dashed=0;verticalLabelPosition=bottom;verticalAlign=top;align=center;html=1;fontSize=12;fontStyle=0;shape=mxgraph.aws4.resourceIcon;resIcon=mxgraph.aws4.transfer_family;container=0;aspect=fixed;" vertex="1" parent="1">
          <mxGeometry x="803.5" y="851" width="50" height="50" as="geometry" />
        </mxCell>
        <mxCell id="QUULI8nU6SgXqf4ghOHJ-47" value="AWS Transfer&lt;br style=&quot;border-color: var(--border-color);&quot;&gt;&lt;span style=&quot;border-color: var(--border-color);&quot;&gt;Family&lt;/span&gt;" style="text;html=1;strokeColor=none;fillColor=none;align=center;verticalAlign=middle;whiteSpace=wrap;rounded=0;" vertex="1" parent="1">
          <mxGeometry x="789.5" y="905" width="80" height="30" as="geometry" />
        </mxCell>
        <mxCell id="QUULI8nU6SgXqf4ghOHJ-49" style="edgeStyle=orthogonalEdgeStyle;rounded=0;orthogonalLoop=1;jettySize=auto;html=1;entryX=0.5;entryY=0;entryDx=0;entryDy=0;entryPerimeter=0;exitX=1;exitY=0.5;exitDx=0;exitDy=0;exitPerimeter=0;endArrow=none;endFill=0;" edge="1" parent="1" target="QUULI8nU6SgXqf4ghOHJ-44">
          <mxGeometry relative="1" as="geometry">
            <mxPoint x="854.5" y="876" as="sourcePoint" />
            <mxPoint x="987" y="1036" as="targetPoint" />
          </mxGeometry>
        </mxCell>
        <mxCell id="QUULI8nU6SgXqf4ghOHJ-50" value="AWS Cloudwatch" style="outlineConnect=0;dashed=0;verticalLabelPosition=bottom;verticalAlign=top;align=center;html=1;shape=mxgraph.aws3.cloudwatch;fillColor=#759C3E;gradientColor=none;" vertex="1" parent="1">
          <mxGeometry x="956.5" y="687" width="69" height="69" as="geometry" />
        </mxCell>
        <mxCell id="QUULI8nU6SgXqf4ghOHJ-51" value="AWS Cloudtrail" style="sketch=0;points=[[0,0,0],[0.25,0,0],[0.5,0,0],[0.75,0,0],[1,0,0],[0,1,0],[0.25,1,0],[0.5,1,0],[0.75,1,0],[1,1,0],[0,0.25,0],[0,0.5,0],[0,0.75,0],[1,0.25,0],[1,0.5,0],[1,0.75,0]];points=[[0,0,0],[0.25,0,0],[0.5,0,0],[0.75,0,0],[1,0,0],[0,1,0],[0.25,1,0],[0.5,1,0],[0.75,1,0],[1,1,0],[0,0.25,0],[0,0.5,0],[0,0.75,0],[1,0.25,0],[1,0.5,0],[1,0.75,0]];outlineConnect=0;fontColor=#232F3E;fillColor=#E7157B;strokeColor=#ffffff;dashed=0;verticalLabelPosition=bottom;verticalAlign=top;align=center;html=1;fontSize=12;fontStyle=0;aspect=fixed;shape=mxgraph.aws4.resourceIcon;resIcon=mxgraph.aws4.cloudtrail;" vertex="1" parent="1">
          <mxGeometry x="949" y="529" width="78" height="78" as="geometry" />
        </mxCell>
        <mxCell id="QUULI8nU6SgXqf4ghOHJ-52" value="AWS Identity &amp;amp;&lt;br&gt;Access Management" style="sketch=0;points=[[0,0,0],[0.25,0,0],[0.5,0,0],[0.75,0,0],[1,0,0],[0,1,0],[0.25,1,0],[0.5,1,0],[0.75,1,0],[1,1,0],[0,0.25,0],[0,0.5,0],[0,0.75,0],[1,0.25,0],[1,0.5,0],[1,0.75,0]];outlineConnect=0;fontColor=#232F3E;fillColor=#DD344C;strokeColor=#ffffff;dashed=0;verticalLabelPosition=bottom;verticalAlign=top;align=center;html=1;fontSize=12;fontStyle=0;aspect=fixed;shape=mxgraph.aws4.resourceIcon;resIcon=mxgraph.aws4.identity_and_access_management;" vertex="1" parent="1">
          <mxGeometry x="947" y="390" width="78" height="78" as="geometry" />
        </mxCell>
        <mxCell id="QUULI8nU6SgXqf4ghOHJ-53" value="Step Functions" style="outlineConnect=0;dashed=0;verticalLabelPosition=bottom;verticalAlign=top;align=center;html=1;shape=mxgraph.aws3.step_functions;fillColor=#D9A741;gradientColor=none;fontSize=10;" vertex="1" parent="1">
          <mxGeometry x="966.5" y="1101" width="50" height="55" as="geometry" />
        </mxCell>
        <mxCell id="QUULI8nU6SgXqf4ghOHJ-54" value="EjecuciÃ³n Task Programado" style="edgeStyle=orthogonalEdgeStyle;rounded=0;orthogonalLoop=1;jettySize=auto;html=1;entryX=0.5;entryY=1;entryDx=0;entryDy=0;dashed=1;" edge="1" parent="1" source="QUULI8nU6SgXqf4ghOHJ-55" target="QUULI8nU6SgXqf4ghOHJ-40">
          <mxGeometry relative="1" as="geometry">
            <mxPoint x="587.5517241379312" y="1127.1379310344828" as="targetPoint" />
          </mxGeometry>
        </mxCell>
        <mxCell id="QUULI8nU6SgXqf4ghOHJ-55" value="" style="sketch=0;outlineConnect=0;fontColor=#232F3E;gradientColor=none;fillColor=#ED7100;strokeColor=none;dashed=0;verticalLabelPosition=bottom;verticalAlign=top;align=center;html=1;fontSize=12;fontStyle=0;aspect=fixed;pointerEvents=1;shape=mxgraph.aws4.ecs_task;" vertex="1" parent="1">
          <mxGeometry x="948" y="1138" width="18.5" height="24" as="geometry" />
        </mxCell>
      </root>
    </mxGraphModel>
  </diagram>
</mxfile>
